<?xml version="1.0" encoding="UTF-8" standalone="no"?>
<svg width="100%" height="100%" viewBox="9 10 8 13" version="1.1" xmlns="http://www.w3.org/2000/svg" xmlns:xlink="http://www.w3.org/1999/xlink" xml:space="preserve" style="fill-rule:evenodd;clip-rule:evenodd;stroke-linejoin:round;stroke-miterlimit:2;">
    <g>
        <g transform="matrix(1,0,0,1,0,3.25)">
            <rect x="10" y="7" width="2" height="1"/>
        </g>
        <g transform="matrix(1,0,0,1,0,3.25)">
            <rect x="9" y="8" width="1" height="10"/>
        </g>
        <g transform="matrix(1,0,0,1,1,3.25)">
            <rect x="9" y="8" width="1" height="10"/>
        </g>
        <g transform="matrix(1,0,0,1,2,3.25)">
            <rect x="9" y="8" width="1" height="10"/>
        </g>
        <g transform="matrix(1,0,0,0.8,3,5.85)">
            <rect x="9" y="8" width="1" height="10"/>
        </g>
        <g transform="matrix(1,0,0,0.6,4,8.45)">
            <rect x="9" y="8" width="1" height="10"/>
        </g>
        <g transform="matrix(1,0,0,0.4,5,11.05)">
            <rect x="9" y="8" width="1" height="10"/>
        </g>
        <g transform="matrix(1,0,0,0.2,6,13.65)">
            <rect x="9" y="8" width="1" height="10"/>
        </g>
        <g transform="matrix(1,0,0,1,0,3.25)">
            <rect x="10" y="18" width="2" height="1"/>
        </g>
        <g transform="matrix(1,0,0,1,0,3.25)">
            <rect x="12" y="8" width="1" height="1"/>
        </g>
        <g transform="matrix(1,0,0,1,0,3.25)">
            <rect x="13" y="9" width="1" height="1"/>
        </g>
        <g transform="matrix(1,0,0,1,0,3.25)">
            <rect x="14" y="10" width="1" height="1"/>
        </g>
        <g transform="matrix(1,0,0,1,0,3.25)">
            <rect x="15" y="11" width="1" height="1"/>
        </g>
        <g transform="matrix(1,0,0,1,0,3.25)">
            <rect x="16" y="12" width="1" height="2"/>
        </g>
        <g transform="matrix(1,0,0,1,0,3.25)">
            <rect x="12" y="17" width="1" height="1"/>
        </g>
        <g transform="matrix(1,0,0,1,0,3.25)">
            <rect x="13" y="16" width="1" height="1"/>
        </g>
        <g transform="matrix(1,0,0,1,0,3.25)">
            <rect x="14" y="15" width="1" height="1"/>
        </g>
        <g transform="matrix(1,0,0,1,0,3.25)">
            <rect x="15" y="14" width="1" height="1"/>
        </g>
    </g>
</svg>
